<svg width="128" height="128" viewBox="0 0 128 128" fill="none" xmlns="http://www.w3.org/2000/svg">
<path d="M10.5071 10.3477C8.15274 10.8544 6.49875 11.6889 4.54675 13.3729C3.11627 14.6097 2.05831 15.9808 1.19407 17.7392C-0.102301 20.3471 0.0020041 17.6945 0.0020041 47.0966C0.0020041 76.2156 -0.0874007 73.8015 1.04506 76.2007C2.80335 79.9114 5.96232 82.6236 9.83653 83.7115L11.0286 84.0542L29.0288 84.0989L47.014 84.1287V70.7167V57.3047L37.5222 57.3345L28.0155 57.3792L25.5569 64.0107L23.0982 70.6422L17.3763 70.6869C11.9822 70.7167 11.6693 70.7018 11.7736 70.4634C11.8779 70.1653 21.7721 41.1805 25.3781 30.5403L27.7622 23.5511H37.4179H47.0885L50.0985 32.5521C51.7674 37.5145 53.1233 41.5977 53.1233 41.6424C53.1233 41.6871 53.481 41.3891 53.9131 40.9718C55.0902 39.8393 55.8204 39.3177 57.3552 38.5428C60.1118 37.127 61.7509 36.9035 69.1864 36.8886H74.1484L74.1037 28.9457C74.059 21.2263 74.0441 20.9879 73.7162 19.8404C72.4199 15.3847 68.7394 11.7932 64.0754 10.4818L62.8834 10.1391L37.3285 10.1093C13.1892 10.0795 11.6991 10.0944 10.5071 10.3477Z" fill="black"/>
<path d="M33.5735 40.644L30.2059 50.3751L33.6182 50.4198C35.4957 50.4347 38.5653 50.4347 40.4428 50.4198L43.855 50.3751L40.4875 40.644C38.6398 35.3089 37.0752 30.9277 37.0305 30.9277C36.9709 30.9277 35.4212 35.3089 33.5735 40.644Z" fill="black"/>
<path d="M64.5225 44.1013C60.8569 44.8464 57.087 47.7821 55.3287 51.2693C54.6581 52.5807 54.1515 54.4583 54.0025 56.187C53.9131 57.2153 53.8684 66.8123 53.9131 82.1169C53.9727 108.36 53.9131 106.75 54.7326 109.015C55.8949 112.309 58.5174 115.14 61.8105 116.69C63.1665 117.331 64.2989 117.629 66.087 117.808C67.9645 118.002 113.978 118.002 115.856 117.808C119.149 117.48 121.637 116.303 123.962 113.993C125.511 112.443 126.584 110.789 127.24 108.911C128.03 106.676 128 107.972 128 80.7012V55.2929L127.672 54.1752C126.897 51.463 125.958 49.7939 124.155 47.9312C122.934 46.6943 120.877 45.2637 119.626 44.7868C117.256 43.9076 119.521 43.9672 91.2694 43.9523C71.6301 43.9374 65.2079 43.9672 64.5225 44.1013ZM94.8456 62.893V70.1206H105.649H116.452V73.8462V77.5717H111.832H107.213L107.154 77.8996C105.932 84.1585 103.458 89.4935 99.5989 94.2027L98.7347 95.2607L102.043 96.3188C108.48 98.3902 110.789 99.0012 113.427 99.3439C114.619 99.493 114.783 99.5526 114.679 99.7612C114.351 100.372 113.472 106.616 113.472 108.27V109.239L112.056 109.15C110.253 109.015 107.809 108.539 105.559 107.898C102.043 106.884 96.4102 104.545 92.6403 102.533L90.8224 101.564L88.9151 102.593C82.3885 106.124 74.6848 108.792 70.1252 109.135L68.6798 109.239L68.65 107.883C68.6202 106.333 68.3222 104.113 67.7857 101.445C67.5771 100.432 67.4281 99.5824 67.4579 99.5526C67.4877 99.5228 68.2775 99.4035 69.2162 99.2545C72.5689 98.7777 77.5756 97.3768 81.3157 95.8568L82.91 95.216L81.9415 94.0387C78.4994 89.8065 75.4745 83.6668 74.4911 78.8682L74.2229 77.5717H70.006H65.789V73.8462V70.1206H76.4431H87.0972V62.893V55.6654H90.9714H94.8456V62.893Z" fill="black"/>
<path d="M84.117 79.1663C85.1452 83.0558 86.2627 85.3954 88.3637 88.0778C88.8853 88.7335 89.6452 89.5979 90.0773 90.0151L90.8522 90.7602L91.6717 89.8661C94.637 86.6621 96.2165 83.7115 97.5277 79.0322L97.93 77.5717H90.8075H83.6998L84.117 79.1663Z" fill="black"/>
</svg>
